<?xml version="1.0" encoding="UTF-8" standalone="no"?>
<svg
   xmlns:dc="http://purl.org/dc/elements/1.1/"
   xmlns:cc="http://creativecommons.org/ns#"
   xmlns:rdf="http://www.w3.org/1999/02/22-rdf-syntax-ns#"
   xmlns:svg="http://www.w3.org/2000/svg"
   xmlns="http://www.w3.org/2000/svg"
   viewBox="0 0 1010.8 519.82666"
   height="519.82666"
   width="1010.8"
   xml:space="preserve"
   id="svg2"
   version="1.1"><metadata
     id="metadata8"><rdf:RDF><cc:Work
         rdf:about=""><dc:format>image/svg+xml</dc:format><dc:type
           rdf:resource="http://purl.org/dc/dcmitype/StillImage" /></cc:Work></rdf:RDF></metadata><defs
     id="defs6" /><g
     transform="matrix(1.3333333,0,0,-1.3333333,0,519.82667)"
     id="g10"><g
       transform="scale(0.1)"
       id="g12"><path
         id="path14"
         style="fill:#f58113;fill-opacity:1;fill-rule:nonzero;stroke:none"
         d="m 2324.97,3898.55 h 361.38 l -264.56,-75.22 c -22.81,21.86 -21.6,20.37 -96.82,75.22" /><path
         id="path16"
         style="fill:#231f20;fill-opacity:1;fill-rule:nonzero;stroke:none"
         d="M 4259.31,720.07 5700.3,961.469 4852.79,719.832 Z" /><path
         id="path18"
         style="fill:#231f20;fill-opacity:1;fill-rule:nonzero;stroke:none"
         d="m 2677.12,1038.95 2916.14,369.45 -2675.61,-629.978 -328.66,-58.59 -224.34,0.238 c 188.43,112.25 244.71,217.52 312.47,318.88" /><path
         id="path20"
         style="fill:#f58113;fill-opacity:1;fill-rule:nonzero;stroke:none"
         d="M 2829.3,1511.24 3129.81,1596 6379.5,2007.4 3703.58,1377.42 2757.54,1209.27 c 26.71,65.71 68.26,214.95 71.76,301.97" /><path
         id="path22"
         style="fill:#231f20;fill-opacity:1;fill-rule:nonzero;stroke:none"
         d="m 2499.96,3741.14 557.83,157.41 1497.85,-3.49 L 3662.29,3688.43 2653.37,3509 c -27.63,71.61 -124.71,204.63 -153.41,232.14" /><path
         id="path24"
         style="fill:#f58113;fill-opacity:1;fill-rule:nonzero;stroke:none"
         d="M 2709.96,3363.11 5173.3,3674.89 2750.86,3104.57 c 3.34,72.68 -22.39,208.79 -40.9,258.54" /><path
         id="path26"
         style="fill:#231f20;fill-opacity:1;fill-rule:nonzero;stroke:none"
         d="M 2736.77,2898.06 3794.26,3197.25 7043.91,3608.77 4367.9,2978.64 2660.74,2675.06 c 32.98,52.71 71.86,175.52 76.03,223" /><path
         id="path28"
         style="fill:#f58113;fill-opacity:1;fill-rule:nonzero;stroke:none"
         d="m 2483.86,2378.57 677.04,190.68 3249.69,411.41 -2675.74,-629.71 -1042.87,-185.46 c -36.99,53.93 -99.09,139.89 -208.12,213.08" /><path
         id="path30"
         style="fill:#231f20;fill-opacity:1;fill-rule:nonzero;stroke:none"
         d="m 2803.67,1913.54 1719.91,217.5 -1691.06,-398 c -6.16,68.25 -10.99,112.37 -28.85,180.5" /><path
         id="path32"
         style="fill:#231f20;fill-opacity:1;fill-rule:nonzero;stroke:none"
         d="m 901.273,1429.18 h 478.307 c 118.81,0 205.98,29.22 261.36,87.7 55.65,58.32 83.29,124.31 83.29,197.67 0,73.2 -26.96,140.79 -80.73,202.21 -54.07,61.41 -152.88,92 -296.77,92 H 901.273 v -579.58 m 0,1258.23 H 1358 c 114.38,0 195.24,28.02 242.45,84.35 46.8,56.59 70.39,116.64 70.39,180.75 0,173.79 -109.83,260.68 -329.46,260.68 H 901.273 Z M 2.01172,720.07 V 3898.68 H 1619.36 c 335.9,0 581.02,-84.2 734.98,-252.63 153.79,-168.96 230.9,-361.53 230.9,-577.95 0,-158.11 -44.51,-300.64 -133.69,-428.3 -89.31,-127.79 -222.2,-215.61 -399.06,-263.77 411,-99.5 616.68,-346.9 616.68,-742.61 0,-236.84 -72.78,-448.3 -218.31,-634.279 C 2305.4,813.16 1994.82,720.07 1518.78,720.07 H 2.01172" /><path
         id="path34"
         style="fill:#f58113;fill-opacity:1;fill-rule:nonzero;stroke:none"
         d="m 5070.29,3898.55 h 626.23 l -162.36,-46.8 -1613.08,-227.68 1149.21,274.48" /><path
         id="path36"
         style="fill:#f58113;fill-opacity:1;fill-rule:nonzero;stroke:none"
         d="M 4666.53,2064.26 6104.18,2305.38 4920.24,1967.72 3307.08,1740.01 4666.53,2064.26" /><path
         id="path38"
         style="fill:#231f20;fill-opacity:1;fill-rule:nonzero;stroke:none"
         d="m 4659.16,2444.41 1437.5,240.84 -1183.91,-337.77 -1613.04,-227.44 1359.45,324.37" /><path
         id="path40"
         style="fill:#f58113;fill-opacity:1;fill-rule:nonzero;stroke:none"
         d="M 5758.62,3163.29 7196.4,3404.41 6012.46,3066.77 4399.43,2839.06 5758.62,3163.29" /><path
         id="path42"
         style="fill:#f58113;fill-opacity:1;fill-rule:nonzero;stroke:none"
         d="m 5832.49,3716.72 1084.32,181.83 h 145.48 l -975.94,-278.51 -1613.02,-227.7 1359.16,324.38" /><path
         id="path44"
         style="fill:#231f20;fill-opacity:1;fill-rule:nonzero;stroke:none"
         d="M 5387.3,1641.19 6824.95,1881.9 5641.14,1544.24 4028.13,1316.81 5387.3,1641.19" /><path
         id="path46"
         style="fill:#f58113;fill-opacity:1;fill-rule:nonzero;stroke:none"
         d="M 4644.95,1046.88 6082.88,1287.83 4898.92,950.07 3285.9,722.359 4644.95,1046.88" /><path
         id="path48"
         style="fill:#231f20;fill-opacity:1;fill-rule:nonzero;stroke:none"
         d="M 163.879,242.301 V 110.492 h 241.238 c 72.688,0 108.598,21.848 108.598,65.168 0,44.512 -35.91,66.641 -108.598,66.641 H 163.879 M 402.953,469.852 H 163.879 V 340.988 h 239.074 c 72.559,0 108.777,21.332 108.777,63.981 0,43.16 -36.218,64.883 -108.777,64.883 M 429.262,11.9219 H 0 V 569.629 h 400.688 c 87.3,0 151.933,-7.52 193.355,-22.539 63.027,-23.07 94.691,-66.891 94.691,-130.86 0,-52.839 -38.351,-94.808 -114.808,-125.8 78.469,-26.41 117.898,-67.289 117.898,-122.551 0,-59.527 -25.222,-101.6602 -76.176,-126.5782 C 574.727,21.582 512.66,11.9219 429.262,11.9219" /><path
         id="path50"
         style="fill:#231f20;fill-opacity:1;fill-rule:nonzero;stroke:none"
         d="m 1047.57,244.031 h 233.72 l -118.65,213.5 -115.07,-213.5 M 926.477,11.9219 H 752.539 L 1081.1,569.629 h 173.91 L 1588.93,11.9219 H 1406.42 L 1334,145.34 H 994.078 L 926.477,11.9219" /><path
         id="path52"
         style="fill:#231f20;fill-opacity:1;fill-rule:nonzero;stroke:none"
         d="M 1717.64,11.9219 V 569.629 h 164.41 v -225.27 h 301.45 v 225.27 h 162.92 V 11.9219 H 2183.5 V 245.52 H 1882.05 V 11.9219 h -164.41" /><path
         id="path54"
         style="fill:#231f20;fill-opacity:1;fill-rule:nonzero;stroke:none"
         d="M 2679.94,11.9219 H 2511.48 V 569.629 h 208.94 l 318.35,-401.469 -7.14,401.469 h 165.36 V 11.9219 h -188.55 l -335.35,421.4691 6.85,-421.4691" /><path
         id="path56"
         style="fill:#231f20;fill-opacity:1;fill-rule:nonzero;stroke:none"
         d="M 3371.31,11.9219 V 569.629 h 164.52 v -225.27 h 301.2 v 225.27 h 162.92 V 11.9219 H 3837.03 V 245.52 h -301.2 V 11.9219 h -164.52" /><path
         id="path58"
         style="fill:#231f20;fill-opacity:1;fill-rule:nonzero;stroke:none"
         d="m 4293.2,292.332 c 0,-131.172 70.68,-196.6132 212.02,-196.6132 141.9,0 212.54,64.6402 212.54,194.1832 0,129.95 -70.64,194.848 -212.54,194.848 -70.8,0 -124.69,-17.031 -160.76,-51.359 -34.08,-33 -51.26,-79.93 -51.26,-141.059 m 210.41,289.238 c 120.01,0 211.73,-18.91 274.89,-56.461 79.13,-46.8 118.68,-124.718 118.68,-234.398 C 4897.18,96.8086 4766.58,0 4506.17,0 c -133.85,0 -232.38,23.9922 -295.96,72.5391 -63.68,48.6799 -95.62,121.8909 -95.62,219.7929 0,193.09 129.68,289.238 389.02,289.238" /><path
         id="path60"
         style="fill:#231f20;fill-opacity:1;fill-rule:nonzero;stroke:none"
         d="M 5218.62,11.9219 H 5052.21 V 267.898 c 0,88.532 15.16,155.434 45.04,200.754 26.96,41.45 70.27,69.61 129.95,83.95 45.85,11.39 115.99,17.027 210.25,17.027 h 249.97 v -97.488 h -265.63 c -67.36,0 -116.15,-9.532 -146.58,-28.559 -33.25,-20.652 -52.16,-56.312 -56.59,-107.273 h 468.8 V 241.09 h -468.8 V 11.9219" /><path
         id="path62"
         style="fill:#f58113;fill-opacity:1;fill-rule:nonzero;stroke:none"
         d="M 6143.09,2539.78 7580.97,2780.61 6397.05,2442.95 4784.13,2215.24 6143.09,2539.78" /></g></g></svg>