<?xml version="1.0" encoding="UTF-8" standalone="no"?>
<svg
   xmlns:dc="http://purl.org/dc/elements/1.1/"
   xmlns:cc="http://creativecommons.org/ns#"
   xmlns:rdf="http://www.w3.org/1999/02/22-rdf-syntax-ns#"
   xmlns:svg="http://www.w3.org/2000/svg"
   xmlns="http://www.w3.org/2000/svg"
   viewBox="0 0 715.35999 159.65334"
   height="159.65334"
   width="715.35999"
   xml:space="preserve"
   id="svg2"
   version="1.1"><metadata
     id="metadata8"><rdf:RDF><cc:Work
         rdf:about=""><dc:format>image/svg+xml</dc:format><dc:type
           rdf:resource="http://purl.org/dc/dcmitype/StillImage" /></cc:Work></rdf:RDF></metadata><defs
     id="defs6" /><g
     transform="matrix(1.3333333,0,0,-1.3333333,0,159.65333)"
     id="g10"><g
       transform="scale(0.1)"
       id="g12"><path
         id="path14"
         style="fill:#ffffff;fill-opacity:1;fill-rule:nonzero;stroke:none"
         d="m 4946.59,1197.37 c -0.55,0 -1.06,-0.01 -1.59,-0.01 v -0.15 H 420.25 v 0.15 c -0.543,0 -1.047,0.01 -1.59,0.01 C 73.4492,1197.37 0,1094.54 0,685.047 0,654.676 0,543.602 0,513.23 0,103.738 73.4492,0.910156 418.66,0.910156 c 0.543,0 1.047,0 1.59,0 V 0 H 4945 v 0.910156 c 0.53,0 1.04,0 1.59,0 345.21,0 418.65,102.827844 418.65,512.319844 0,30.372 0,141.446 0,171.817 0,409.493 -73.44,512.323 -418.65,512.323" /><path
         id="path16"
         style="fill:#d22027;fill-opacity:1;fill-rule:nonzero;stroke:none"
         d="M 586.859,335.797 C 471.078,351.832 379.41,443.141 363.27,558.902 H 286.117 C 303.051,400.68 428.676,275.055 586.859,258.043 v 77.754" /><path
         id="path18"
         style="fill:#d22027;fill-opacity:1;fill-rule:nonzero;stroke:none"
         d="M 586.859,558.902 H 436.234 c 14.774,-75.976 74.645,-135.781 150.625,-150.507 v 150.507" /><path
         id="path20"
         style="fill:#d22027;fill-opacity:1;fill-rule:nonzero;stroke:none"
         d="M 659.977,558.902 V 408.473 c 75.843,14.843 135.558,74.55 150.304,150.429 H 659.977" /><path
         id="path22"
         style="fill:#d22027;fill-opacity:1;fill-rule:nonzero;stroke:none"
         d="M 659.977,335.875 V 258.004 C 818.32,274.879 944.098,400.582 961.059,558.902 H 882.945 C 866.832,443.355 775.465,352.145 659.977,335.875" /><path
         id="path24"
         style="fill:#d22027;fill-opacity:1;fill-rule:nonzero;stroke:none"
         d="M 659.977,932.926 V 855.035 C 775.465,838.766 866.832,747.555 882.945,632.027 h 78.114 C 944.098,790.328 818.32,916.031 659.977,932.926" /><path
         id="path26"
         style="fill:#d22027;fill-opacity:1;fill-rule:nonzero;stroke:none"
         d="M 659.977,632.027 H 810.281 C 795.535,707.906 735.82,767.613 659.977,782.438 V 632.027" /><path
         id="path28"
         style="fill:#d22027;fill-opacity:1;fill-rule:nonzero;stroke:none"
         d="M 586.859,932.887 C 428.676,915.855 303.051,790.23 286.117,632.027 h 77.153 c 16.14,115.762 107.808,207.071 223.589,223.106 v 77.754" /><path
         id="path30"
         style="fill:#d22027;fill-opacity:1;fill-rule:nonzero;stroke:none"
         d="M 586.859,782.516 C 510.879,767.789 451.008,708.004 436.234,632.027 h 150.625 v 150.489" /><path
         id="path32"
         style="fill:#214ca1;fill-opacity:1;fill-rule:nonzero;stroke:none"
         d="m 1231.58,882.301 c 9.24,2.539 14.27,-1.68 14.27,-10.918 V 754.645 h 88.19 c 9.23,0 13.44,-4.2 13.44,-12.598 v -39.453 c 0,-8.399 -4.21,-12.598 -13.44,-12.598 h -88.19 V 407.789 c 0,-36.953 10.08,-45.332 54.59,-45.332 h 40.32 c 9.23,0 13.43,-3.359 13.43,-11.777 v -40.313 c 0,-7.539 -4.2,-11.758 -12.59,-13.437 -16.81,-4.18 -39.48,-5.02 -47.03,-5.02 -60.47,0 -129.35,0.84 -129.35,95.723 v 302.363 h -47.02 c -8.42,0 -12.6,4.199 -12.6,12.598 v 39.453 c 0,8.398 4.18,12.598 12.6,12.598 h 47.02 v 100.8 c 0,8.379 3.36,11.758 10.93,13.438 l 55.43,13.418" /><path
         id="path34"
         style="fill:#214ca1;fill-opacity:1;fill-rule:nonzero;stroke:none"
         d="m 1499.98,555.621 h 217.52 c -1.68,106.66 -19.32,133.535 -106.67,133.535 -90.7,0 -109.17,-26.875 -110.85,-133.535 z m 298.13,-17.656 v -24.356 c 0,-16.777 -4.19,-23.496 -30.23,-23.496 h -267.07 c 2.52,-102.48 21.83,-127.656 111.69,-127.656 h 137.74 c 8.41,0 12.61,-4.199 12.61,-12.617 v -36.953 c 0,-7.559 -4.2,-12.598 -11.76,-13.418 -42.83,-5.879 -89.02,-7.559 -140.26,-7.559 -157.89,0 -191.48,46.192 -191.48,233.477 0,187.285 33.59,234.316 191.48,234.316 150.34,0 185.61,-44.531 187.28,-221.738" /><path
         id="path36"
         style="fill:#214ca1;fill-opacity:1;fill-rule:nonzero;stroke:none"
         d="m 1950.03,931.871 c 8.41,0 12.6,-4.199 12.6,-12.617 V 308.688 c 0,-8.399 -4.19,-12.579 -12.6,-12.579 h -55.43 c -8.39,0 -12.58,4.18 -12.58,12.579 v 610.566 c 0,8.418 4.19,12.617 12.58,12.617 h 55.43" /><path
         id="path38"
         style="fill:#214ca1;fill-opacity:1;fill-rule:nonzero;stroke:none"
         d="m 2129.3,555.621 h 217.52 c -1.68,106.66 -19.31,133.535 -106.66,133.535 -90.7,0 -109.18,-26.875 -110.86,-133.535 z m 298.15,-17.656 v -24.356 c 0,-16.777 -4.2,-23.496 -30.23,-23.496 h -267.07 c 2.51,-102.48 21.84,-127.656 111.69,-127.656 h 137.74 c 8.39,0 12.59,-4.199 12.59,-12.617 v -36.953 c 0,-7.559 -4.2,-12.598 -11.75,-13.418 -42.84,-5.879 -89.03,-7.559 -140.26,-7.559 -157.89,0 -191.48,46.192 -191.48,233.477 0,187.285 33.59,234.316 191.48,234.316 150.33,0 185.61,-44.531 187.29,-221.738" /><path
         id="path40"
         style="fill:#214ca1;fill-opacity:1;fill-rule:nonzero;stroke:none"
         d="m 2806.54,752.125 c 7.55,-0.82 11.76,-5.859 11.76,-13.437 v -36.094 c 0,-8.399 -4.21,-12.598 -12.59,-12.598 h -156.22 c -38.64,0 -61.31,-13.457 -61.31,-43.672 v -10.937 c 0,-23.516 10.92,-43.672 52.06,-58.789 l 111.71,-44.512 c 77.25,-29.395 83.97,-72.227 83.97,-118.418 v -9.238 c 0,-94.063 -56.27,-112.52 -169.63,-112.52 -73.08,0 -139.42,5.879 -153.71,7.559 -10.08,0.82 -12.58,5.859 -12.58,12.578 V 349 c 0,8.418 4.18,12.598 12.58,12.598 h 155.37 c 67.2,0 88.19,7.558 88.19,43.672 v 10.078 c 0,24.355 -10.06,40.312 -48.7,56.269 l -119.26,45.352 c -64.67,25.215 -80.64,73.906 -80.64,120.097 v 17.637 c 0,92.383 80.64,105 170.49,105 36.96,0 79.79,-1.699 128.51,-7.578" /><path
         id="path42"
         style="fill:#214ca1;fill-opacity:1;fill-rule:nonzero;stroke:none"
         d="m 2984.74,555.621 h 217.52 c -1.68,106.66 -19.31,133.535 -106.66,133.535 -90.7,0 -109.18,-26.875 -110.86,-133.535 z m 298.16,-17.656 v -24.356 c 0,-16.777 -4.21,-23.496 -30.24,-23.496 h -267.07 c 2.51,-102.48 21.84,-127.656 111.7,-127.656 h 137.72 c 8.41,0 12.61,-4.199 12.61,-12.617 v -36.953 c 0,-7.559 -4.2,-12.598 -11.77,-13.418 -42.83,-5.879 -89.02,-7.559 -140.25,-7.559 -157.89,0 -191.48,46.192 -191.48,233.477 0,187.285 33.59,234.316 191.48,234.316 150.34,0 185.61,-44.531 187.3,-221.738" /><path
         id="path44"
         style="fill:#214ca1;fill-opacity:1;fill-rule:nonzero;stroke:none"
         d="m 3594.7,750.445 c 8.38,-2.5 12.59,-5.879 12.59,-14.277 v -35.254 c 0,-8.398 -5.04,-12.598 -13.44,-11.758 h -73.06 c -57.95,0 -73.06,-9.258 -73.06,-47.031 V 308.688 c 0,-8.399 -4.2,-12.579 -12.61,-12.579 h -54.58 c -8.42,0 -12.6,4.18 -12.6,12.579 v 352.734 c 0,94.902 83.97,98.281 132.68,98.281 20.17,0 77.27,-3.379 94.08,-9.258" /><path
         id="path46"
         style="fill:#214ca1;fill-opacity:1;fill-rule:nonzero;stroke:none"
         d="m 4050,755.504 c 10.07,0 11.75,-2.52 10.07,-13.457 L 3966,390.152 c -22.67,-86.504 -25.19,-98.242 -111.69,-98.242 -78.1,0 -82.31,11.738 -106.66,98.242 l -98.26,351.895 c -1.68,10.937 0.84,13.457 10.08,13.457 h 62.15 c 6.71,0 7.55,-2.52 10.91,-13.457 l 90.7,-333.418 c 10.93,-37.793 13.44,-44.492 31.08,-44.492 22.68,0 26.04,6.699 36.11,44.492 l 87.35,333.418 c 2.52,10.937 4.2,13.457 10.92,13.457 H 4050" /><path
         id="path48"
         style="fill:#214ca1;fill-opacity:1;fill-rule:nonzero;stroke:none"
         d="m 4204.74,755.504 c 8.4,0 12.6,-4.199 12.6,-12.617 V 308.688 c 0,-8.399 -4.2,-12.579 -12.6,-12.579 h -55.44 c -8.4,0 -12.59,4.18 -12.59,12.579 v 434.199 c 0,8.418 4.19,12.617 12.59,12.617 h 55.44" /><path
         id="path50"
         style="fill:#214ca1;fill-opacity:1;fill-rule:nonzero;stroke:none"
         d="m 4625.31,752.125 c 7.56,-0.82 11.76,-5.859 11.76,-14.277 v -36.094 c 0,-8.418 -4.2,-12.598 -12.6,-12.598 h -126.82 c -101.62,0 -114.22,-32.773 -114.22,-163.769 0,-130.196 12.6,-162.93 114.22,-162.93 h 126.82 c 8.4,0 12.6,-4.199 12.6,-12.617 v -36.094 c 0,-8.418 -4.2,-13.457 -11.76,-14.277 -42.83,-5.879 -92.39,-7.559 -127.66,-7.559 -162.94,0 -194.84,46.192 -194.84,233.477 0,187.285 31.9,234.316 194.84,234.316 35.27,0 84.83,-1.699 127.66,-7.578" /><path
         id="path52"
         style="fill:#214ca1;fill-opacity:1;fill-rule:nonzero;stroke:none"
         d="m 4785.09,555.621 h 217.52 c -1.68,106.66 -19.31,133.535 -106.66,133.535 -90.7,0 -109.18,-26.875 -110.86,-133.535 z m 298.15,-17.656 v -24.356 c 0,-16.777 -4.2,-23.496 -30.24,-23.496 h -267.07 c 2.52,-102.48 21.84,-127.656 111.71,-127.656 h 137.74 c 8.38,0 12.58,-4.199 12.58,-12.617 v -36.953 c 0,-7.559 -4.2,-12.598 -11.75,-13.418 -42.84,-5.879 -89.03,-7.559 -140.26,-7.559 -157.89,0 -191.48,46.192 -191.48,233.477 0,187.285 33.59,234.316 191.48,234.316 150.33,0 185.62,-44.531 187.29,-221.738" /></g></g></svg>