<?xml version="1.0" encoding="UTF-8" standalone="no"?>
<svg
   xmlns:dc="http://purl.org/dc/elements/1.1/"
   xmlns:cc="http://creativecommons.org/ns#"
   xmlns:rdf="http://www.w3.org/1999/02/22-rdf-syntax-ns#"
   xmlns:svg="http://www.w3.org/2000/svg"
   xmlns="http://www.w3.org/2000/svg"
   viewBox="0 0 533.33331 179.09332"
   height="179.09332"
   width="533.33331"
   xml:space="preserve"
   id="svg2"
   version="1.1"><metadata
     id="metadata8"><rdf:RDF><cc:Work
         rdf:about=""><dc:format>image/svg+xml</dc:format><dc:type
           rdf:resource="http://purl.org/dc/dcmitype/StillImage" /></cc:Work></rdf:RDF></metadata><defs
     id="defs6" /><g
     transform="matrix(1.3333333,0,0,-1.3333333,0,179.09333)"
     id="g10"><g
       transform="scale(0.1)"
       id="g12"><path
         id="path14"
         style="fill:#000000;fill-opacity:1;fill-rule:nonzero;stroke:none"
         d="m 2978.48,749.734 c -25.15,41.25 -62.62,48.141 -90.84,48.141 -60.43,0 -90.16,-40.504 -100.82,-93.98 -3.03,-17.364 -4.56,-34.954 -4.59,-52.571 0,-66.433 16.79,-146.719 105.85,-146.719 19.07,0 36.65,3.118 51.93,11.516 61.03,31.348 61.03,116.887 61.03,135.203 0.37,31.246 -3.67,67.746 -22.68,98.41 m 90.25,-266.425 c 0,-9.954 -3.08,-33.567 -34.38,-33.567 -17.58,0 -26.67,9.942 -30.5,17.52 -3.1,6.875 -3.1,13.047 -2.32,34.375 -6.88,-8.36 -15.25,-18.328 -32.04,-29.801 -27.53,-18.332 -58.12,-25.109 -90.22,-25.109 -120.62,0 -169.55,100.039 -169.55,207.703 0,96.996 42.82,203.234 164.99,203.234 81.82,0 116.08,-46.031 126.33,-58.824 v 164.933 c 0,6.118 1.51,12.239 3.8,17.567 3.81,7.633 13.77,16.801 29.85,16.801 3.06,0 10.18,0 17.49,-3.766 14.54,-7.332 16.79,-19 16.79,-30.602 V 483.309 h -0.24 z M 2322.4,820.93 c 0,10.734 2.27,22.164 16.81,29.816 9.83,4.555 25.92,4.555 35,0 16.82,-8.055 16.79,-19.715 16.79,-50.371 31.32,42.023 70.99,57.27 122.95,57.27 41.34,0 80.37,-12.391 105.14,-43.551 26.04,-32.813 27.03,-73 27.03,-113.813 V 484.117 c 0,-10 -3.01,-34.355 -35.13,-34.355 -6.08,0 -12.26,1.515 -18.33,3.789 -14.53,7.676 -16.81,19.789 -16.81,30.566 v 180.266 c 0,40.469 -1.51,49.629 -1.51,56.539 0,20.59 -4.58,76.391 -75.67,76.391 -69.53,0 -94.64,-51.958 -102.34,-86.918 -4.55,-19.86 -3.81,-39.676 -3.81,-60.329 V 484.305 c 0,-9.942 -3.03,-34.383 -35.16,-34.383 -6.03,0 -12.22,1.558 -18.29,3.883 -14.54,7.55 -16.81,19.043 -16.81,30.5 V 820.93 Z M 2082.56,635.086 c -13.04,-2.293 -28.31,-6.106 -39.01,-9.91 -11.42,-3.762 -45.79,-15.246 -45.79,-58.059 0,-42.304 32.91,-63.515 70.79,-63.515 43.53,0 72.61,25.214 83.99,40.449 19.92,27.531 20.67,63.418 21.48,114.57 -14.57,-6.055 -19.92,-7.578 -51.95,-14.531 l -39.51,-8.75 z m 156.5,-154.777 c -0.72,-8.485 -2.22,-30.575 -30.53,-30.575 -13.02,0.735 -24.42,5.254 -29.03,16.778 -2.33,6.054 -3.07,9.179 -3.07,36.629 -37.42,-48.153 -89.33,-56.453 -122.95,-56.453 -79.42,0 -128.36,48.867 -128.36,121.414 0,90.871 74.9,105.382 116.08,113.789 l 64.96,13.808 c 26.03,5.305 39.74,8.406 46.65,10.641 16.01,4.625 21.34,10.695 21.34,29.824 0,64.906 -65.73,64.906 -79.42,64.906 -66.41,0 -77.92,-32.859 -84.78,-53.433 -2.34,-10.696 -6.15,-24.473 -32.11,-24.828 -28.25,0 -35.89,16.043 -35.89,29.773 0,15.293 9.92,34.379 16.04,44.332 30.58,46.598 83.99,60.348 136.74,60.348 44.28,0 89.84,-8.789 118.29,-41.25 25.86,-30.649 26.24,-69.36 26.24,-106.969 V 480.301 h -0.2 z m -533.12,319.254 c -18.34,0 -36.68,-3.825 -52.71,-12.411 -45.82,-25.203 -60.35,-80.988 -60.35,-133.707 0,-60.558 19.72,-150.398 110.97,-150.422 16.83,0 32.87,3.008 47.41,9.856 34.38,16.828 59.58,52.676 59.58,137.48 -0.21,32.211 -1.17,149.016 -104.87,149.016 m -112.32,0.961 c 9.94,12.977 44.34,57.316 124.5,57.316 135.99,0 165.73,-126.332 165.73,-206.57 0,-128.406 -68.75,-205.469 -170.34,-205.469 -65.72,0 -97.04,28.184 -119.91,51.172 0,-17.578 0,-24.531 -3.86,-31.437 -3.8,-6.856 -12.97,-16.004 -29.78,-16.004 -6.87,0 -13.01,0.722 -18.33,3.75 -14.52,7.715 -16.79,18.332 -16.79,29.804 v 480.875 c 0,6.118 1.54,12.239 3.78,17.567 3.07,6.144 12.24,16.785 30.6,16.785 6.07,0 12.39,-1.422 17.51,-3.629 14.54,-7.324 16.79,-18.984 16.79,-30.582 V 800.336 h 0.1 z m -241.4,-50.602 c -25.2,41.25 -62.61,48.141 -90.85,48.141 -60.35,0 -90.15,-40.504 -100.83,-93.98 -3.05,-17.36 -4.59,-34.946 -4.6,-52.571 0,-66.433 16.79,-146.719 105.84,-146.719 19.12,0 36.7,3.118 51.94,11.516 61.13,31.348 61.13,116.887 61.13,135.203 0.32,31.246 -3.24,67.746 -22.94,98.41 m 90.48,-266.425 c 0,-9.954 -3.07,-33.567 -34.37,-33.567 -17.57,0 -26.73,9.942 -30.61,17.52 -3.04,6.875 -3.04,13.047 -2.24,34.375 -6.89,-8.36 -15.28,-18.328 -32.08,-29.801 -27.5,-18.332 -58.08,-25.109 -90.13,-25.109 -120.7,0 -169.57,100.039 -169.57,207.703 0,96.996 42.76,203.234 164.94,203.234 81.77,0 116.09,-46.031 126.31,-58.824 v 164.933 c 0,6.118 1.54,12.239 3.85,17.567 3.8,7.633 13.74,16.801 29.76,16.801 3.08,0 10.23,0 17.55,-3.766 14.48,-7.332 16.8,-19 16.8,-30.602 V 483.309 Z M 968.051,690.301 C 964.988,740.719 937.5,796.52 864.934,796.52 c -16.032,0 -47.344,-1.555 -74.075,-25.2 -30.589,-26.757 -37.429,-63.418 -41.25,-81.019 z M 748.848,633.086 c 1.543,-34.336 9.472,-65.023 29.929,-90.199 25.965,-32.059 56.93,-37.176 87.594,-37.176 60.34,0 81.738,31.289 95.442,52.695 12.269,20.567 16.078,28.231 32.875,28.231 16.812,0 39.412,-10.196 39.412,-32.11 0,-2.984 0,-5.39 -0.77,-7.722 -3.02,-14.461 -16.05,-31.258 -24.43,-40.442 -52.689,-59.566 -121.439,-59.566 -142.822,-59.883 -49.637,0 -100.047,9.954 -139.035,53.442 -34.383,39.031 -50.41,93.992 -50.41,148.965 0,96.277 51.937,208.586 187.137,208.586 16.793,0 33.57,-1.477 49.648,-5.379 34.391,-8.035 64.242,-25.543 87.612,-57.313 25.19,-35 37.94,-84.644 37.94,-127.718 0,-32.055 -24.44,-34.321 -34.38,-34.321 H 748.828 v 0.344 z M 530.23,782.762 c 14.52,43.551 58.063,71.793 103.122,71.793 8.378,0 42.316,0 42.316,-34.379 0,-26.746 -21.355,-31.262 -32.07,-32.824 -19.106,-3.055 -38.942,-6.079 -59.59,-19.114 -50.399,-35.113 -50.399,-88.605 -50.399,-134.394 V 481.852 c 0,-12.262 -2.293,-32.079 -35.129,-32.145 -31.339,0 -34.371,21.316 -34.371,32.078 v 340.719 c 0,9.18 3.032,32.051 33.582,32.051 29.797,0 32.84,-22.625 32.84,-32.051 V 782.762 Z M 72.6719,518.465 h 93.1951 c 21.356,0 43.531,0.754 67.223,3.027 20.621,2.297 91.633,11.504 91.633,91.719 0,18.348 -2.262,37.422 -13.731,52.719 -30.554,39.711 -48.883,41.211 -160.402,41.211 H 72.6719 Z m 0,252.082 H 159.75 c 64.152,0 94.699,1.535 116.102,16.012 15.257,9.171 32.07,30.582 32.07,64.195 0,38.172 -19.082,59.601 -45.063,70.25 -22.14,9.172 -48.117,9.172 -109.23,9.172 H 72.6797 V 770.547 Z M 159.75,993.594 c 62.637,0 108.039,-0.774 141.621,-12.992 34.371,-12.403 78.82,-44.539 78.82,-121.457 0,-29.801 -7.632,-53.446 -18.312,-70.059 -14.52,-22.922 -39.731,-41.231 -66.457,-47.375 67.984,-11.668 102.211,-64.941 102.211,-132.106 0,-46.628 -16.805,-102.371 -74.875,-132.175 -37.406,-18.282 -86.289,-22.864 -146.66,-22.864 H 36.0195 c -33.61716,0 -35.160125,22.864 -35.906219,35.879 v 467.219 c 0.746094,26.75 12.226519,35.93 35.906219,35.93 z M 3334.63,573.875 c -17.15,-19.68 -27.52,-43.711 -31.3,-71.73 34.17,36.449 139.51,34.875 189.06,-4.415 54.71,-43.093 97.04,-65 126.24,-65 21.28,0 38.59,7.032 51.9,21.106 13.28,14.043 19.92,32.121 19.92,54.266 0,7.445 -1.53,15.929 -4.61,25.023 -12.14,-12.113 -25.82,-18.305 -41.03,-18.305 -32.63,0 -49,15.969 -49,47.989 0,17.445 6.44,31.875 19.38,43.312 12.91,11.395 30.01,17.051 51.32,17.051 28.12,0 50.37,-10.234 67.87,-29.883 17.08,-20.48 25.59,-46.797 25.59,-80.43 0,-47.089 -14.81,-87.336 -44.47,-120.742 -29.66,-33.535 -65.71,-50.176 -108.26,-50.387 -40.3,0 -88.71,21.571 -145.32,64.879 -56.65,43.313 -141.35,49.825 -151.93,19.473 h 13.66 c 22.01,0 32.83,-10.957 32.83,-32.863 0,-34.266 -19.06,-51.297 -57.03,-51.297 -25.02,0 -45.4,10.742 -60.96,32.5 -15.6,21.59 -23.39,50.703 -23.39,87.215 0,132.875 102.94,240.105 286.1,298.586 l 59.29,26.23 c 92,29.629 137.94,79.418 137.94,149.34 0,47.121 -16.55,84.387 -49.54,111.717 -33.05,27.34 -78.5,41.02 -136.2,41.02 -50.94,0 -70.39,-10.22 -103.85,-30.74 -33.46,-20.52 -53.16,-48.66 -59.32,-84.688 41.06,-2.926 61.33,-21.153 61.33,-53.559 0,-19.797 -7.15,-36.668 -21.58,-50.73 -14.46,-14.059 -32.36,-21.09 -53.58,-21.161 -25.89,0 -46.64,8.934 -62.15,26.789 -15.6,17.832 -23.33,41.231 -23.33,70.102 0,62.297 28.09,114.357 84.31,156.127 56.27,41.82 103.03,62.76 185.86,62.76 80.57,0 146.7,-21.18 197.82,-63.29 51.29,-42.34 76.63,-96.37 76.63,-163.546 0,-45.582 -12.35,-85.875 -37.07,-120.809 -24.69,-34.961 -70.42,-72.555 -114.53,-90.012 -13.67,-5.351 -36.49,-21.269 -114.05,-48.183 -55.48,-19.008 -99.95,-37.211 -133.34,-54.672 -23.38,-12.598 -44.43,-29.375 -61.22,-49.152" /><path
         id="path16"
         style="fill:#9c2948;fill-opacity:1;fill-rule:nonzero;stroke:none"
         d="m 3154.99,1002.73 c 0,0 0.36,2.7 1.12,7.93 0.74,5.25 1.93,13.04 3.89,23.17 4.23,20.11 10.72,49.99 26.14,85.88 15.45,35.55 39.25,78.4 80.09,116.85 21.57,20.48 45.65,38.17 71.63,52.65 27.6,15.36 58.74,27.44 92.06,36.23 33.24,8.8 68.8,14.25 105.55,16.52 18.4,1.02 37.09,1.58 56.09,1.06 18.63,-0.74 39.4,-2.16 59.1,-5.68 40.05,-6.61 81.04,-20.47 118.3,-42.23 37.72,-21.2 72.27,-50.36 100.72,-84.71 57.59,-68.58 93.42,-154.01 113.1,-242.638 9.84,-44.664 15.46,-90.153 16.79,-135.871 0.39,-11.668 0.73,-23.328 0,-35 -0.08,-5.844 -0.25,-11.688 -0.53,-17.528 l -0.48,-8.769 -0.59,-8.141 c -1.54,-22.683 -3.69,-45.32 -6.45,-67.89 -5.78,-45.036 -14.38,-90.18 -27.21,-134.282 -13.03,-43.965 -29.67,-87.179 -50.73,-127.726 -41.82,-81.461 -100.05,-151.965 -164.5,-208.035 -15.88,-14.059 -32.29,-27.5 -49.21,-40.29 -15.89,-12.058 -31.65,-24.082 -47.23,-35.871 -31.13,-23.648 -61.09,-47.8 -92.34,-70.0582 C 3529.02,55.8203 3496.71,33.9609 3460,18.6602 3441.69,11.082 3422.47,5.26172 3402.96,2.32031 c -19.52,-2.800779 -39,-3.109373 -57.31,-0.69922 -18.37,2.19922 -35.62,6.32813 -51.75,11.32811 -4.22,1.4102 -8.42,2.7617 -12.55,4.1524 -3.64,1.3867 -7.26,2.7304 -10.8,4.2187 -3.82,1.4102 -7.57,2.9883 -11.26,4.7305 -3.81,1.668 -7.81,3.3008 -11.4,5.1211 -14.19,6.9297 -27.79,14.9883 -40.69,24.0898 -12.61,8.8477 -23.77,18.9766 -33.89,29.4297 -18.56,19.5276 -33.46,42.2496 -43.97,67.0706 -9.78,22.679 -14.15,44.91 -16.2,64.738 -3.6,39.969 3.03,70.641 9.27,90.449 2.99,9.891 6.13,17.199 8.32,22.071 2.32,4.839 3.5,7.23 3.5,7.23 l -1.96,-7.762 c -1.73,-7.539 -3.11,-15.136 -4.12,-22.808 -3.58,-28.809 -1.84,-58.032 5.13,-86.211 8.92,-35 28.46,-76.571 66.45,-107.289 18.88,-15.3597 41.56,-28.4612 67.14,-38.0316 3.22,-1.457 6.54,-2.1679 9.53,-2.8671 3.11,-0.7227 6.54,-2.211 10.19,-3.1602 3.63,-0.7227 7.31,-2.1719 10.94,-3.1523 -1.01,0.2812 0,0 0.03,0.0703 l 0.7,-0.2188 h 1.25 l 2.7,-0.539 5.22,-1.2696 c 14.1,-2.9101 28.45,-5.1406 43.11,-5.6211 14.25,0 28.5,0.6289 42.56,3.5977 14.03,3 27.91,8.1406 41.88,15.0508 27.8,13.6093 55.49,34.4409 83.67,57.4809 28.15,23.199 64.2,48.332 94.64,73.832 15.36,12.867 30.88,25.546 46.56,38.027 15.12,12.109 29.78,24.769 43.95,37.992 28.88,26.68 55.53,55.668 79.7,86.684 24.26,31.347 38.96,65.246 57.08,101.093 36.64,71.758 58.34,152.239 69.38,235.153 2.69,20.922 4.75,41.5 6.32,62.703 l 1.14,15.668 c 0.34,5.027 0.5,10.109 0.74,15.187 0.37,10.145 0.43,20.317 0.2,30.516 -0.63,40.84 -5.35,81.797 -13.21,121.555 -15.76,79.38 -45.49,154.97 -91.15,213.88 -22.92,29.22 -49.43,54.41 -79.3,73.46 -29.75,19.09 -62.47,32.23 -96.02,39.69 -16.71,3.7 -33.66,6.19 -50.73,7.44 l -25.98,1.79 c -8.58,0.3 -17.16,0.73 -25.61,0.87 -33.77,0.4 -66.28,-2.15 -96.85,-8.04 -29.18,-5.4 -57.66,-14.02 -84.95,-25.7 -24.57,-10.8 -47.68,-24.65 -68.79,-41.23 -39.91,-31.54 -67.5,-68.32 -86,-100.76 -14.44,-25.46 -26.46,-52.23 -35.9,-79.94 -5.96,-20.12 -8.86,-30.36 -8.86,-30.36" /><path
         id="path18"
         style="fill:#000000;fill-opacity:1;fill-rule:nonzero;stroke:none"
         d="m 3026.7,188.59 c 7.23,0 13.09,-5.86 13.09,-13.281 0,-7.411 -5.95,-13.239 -13.23,-13.239 -7.21,0 -13.21,6 -13.21,13.239 0,7.332 6.05,13.062 13.19,13.281 h 0.16 z m -91.68,102.551 c 0,7.558 4.41,12.238 11.43,12.238 7,0 11.66,-4.41 11.66,-12.238 v -11.692 h 0.57 c 5.21,10.68 17.9,23.922 31.14,23.922 8.07,0 12.39,-5.141 12.39,-11.66 0,-6.602 -4.69,-10.699 -14.23,-12.492 -13.54,-2.348 -30.14,-12.489 -30.14,-39.137 v -65.73 c 0,-7.551 -4.45,-12.223 -11.46,-12.223 -7,0 -11.4,4.672 -11.4,12.223 v 116.796 h 0.04 z M 2839.28,181.84 c 28.06,0 37.89,27.461 37.89,50.89 0,23.399 -9.84,50.852 -37.89,50.852 -28.11,0 -37.9,-27.453 -37.9,-51.062 0,-22.961 9.79,-50.711 37.53,-50.668 h 0.37 z m 59.4,-8.559 c 0,-8.133 -6.23,-11.23 -10.57,-11.23 -4.69,0 -10.66,3.097 -10.66,11.23 v 9.551 h -0.57 c -9.85,-13.992 -22.77,-20.801 -37.6,-20.801 -38.99,0 -60.78,34.008 -60.78,70.688 0,36.621 21.79,70.64 60.78,70.64 15.82,0 26.96,-6.578 37.91,-18.48 h 0.53 v 7.25 c 0,8.121 6.03,11.23 10.69,11.23 4.38,0 10.96,-3 10.96,-11.23 V 173.27 h -0.69 z m -260.33,117.86 c 0,7.558 4.44,12.238 11.46,12.238 7.02,0 11.36,-4.41 11.66,-12.238 v -5.45 l 0.48,-0.711 c 10.15,12.989 24.42,18.102 38.22,18.102 21.21,0 48.11,-13.094 48.11,-52.383 v -76.57 c 0,-7.547 -4.33,-12.219 -11.35,-12.488 -7.02,0 -11.44,4.699 -11.44,12.218 v 75.289 c 0,24.223 -16.9,33.981 -31.92,33.981 -15.11,0 -32.01,-9.777 -32.01,-33.981 v -75.289 c 0,-7.519 -4.32,-12.218 -11.35,-12.218 -7.02,0 -11.42,4.699 -11.42,12.218 v 117.289 h -0.44 z m -77.9,12.238 c 19.02,0 46.03,-10.25 46.03,-24.481 0,-4.886 -3.41,-9.339 -10.4,-9.339 -9.91,0 -13.8,14.011 -35.59,14.011 -13,0 -24.13,-5.648 -24.13,-17.34 0,-24.109 73.69,-21.898 73.69,-61.589 0,-28.801 -24.67,-42.59 -50.35,-42.282 -29.01,0 -51.93,14.5 -51.93,26.223 0,6.238 4.44,10.348 9.35,10.348 10.12,0 18.27,-16.782 43.11,-16.782 16.57,0 26.73,9.332 26.73,18.672 0,27.02 -73.78,25.481 -73.78,63.93 0.34,25.031 24.27,38.961 47.61,38.621 h -0.34 z m -121.68,0 c 18.89,0 45.95,-10.25 45.95,-24.481 0,-4.886 -3.32,-9.339 -10.32,-9.339 -9.91,0 -13.79,14.011 -35.58,14.011 -13.02,0 -24.15,-5.648 -24.15,-17.34 0,-24.109 73.72,-21.898 73.72,-61.589 0,-28.801 -24.69,-42.59 -50.36,-42.282 -29.12,0 -51.89,14.5 -51.89,26.223 0,6.238 4.32,10.348 9.33,10.348 10.12,0 18.21,-16.782 43.05,-16.782 16.61,0 26.73,9.332 26.73,18.672 0,27.02 -73.7,25.481 -73.7,63.93 0.19,25.031 23.98,38.961 47.36,38.621 h -0.14 z M 2265.58,281.02 c -2.55,7.789 -3.12,10.128 -3.12,12.66 0,5.8 5.22,9.699 10.4,9.699 5.72,0 10.17,-3.699 11.72,-8.828 l 31.64,-94.711 h 0.48 l 31.17,94.711 c 1.56,4.98 5.2,8.539 10.93,8.539 5.15,0 10.18,-3.559 10.18,-9.418 0,-2.641 -0.43,-4.973 -3.13,-12.762 l -57.58,-164.879 c -1.81,-4.883 -5.44,-8.551 -11.18,-8.551 -5.16,0 -10.39,3.891 -10.39,9.649 0,2.582 0.56,4.922 3.36,12.691 l 14.54,38.692 -39.02,112.508 z m -28.77,-106.739 c 0,-7.551 -4.44,-12.23 -11.46,-12.23 -7,0 -11.46,4.679 -11.46,12.23 v 177.594 c 0,7.516 4.46,12.195 11.46,12.195 7.01,0 11.67,-4.375 11.67,-12.195 V 174.281 Z m -130.6,0 c 0,-7.551 -4.44,-12.23 -11.46,-12.23 -7,0 -11.35,4.679 -11.35,12.23 v 116.867 c 0,7.563 4.34,12.243 11.35,12.243 7.01,0 11.7,-4.411 11.7,-12.243 V 174.281 h -0.24 z m -69.29,160.989 c 2.84,8 4.96,14.796 14.06,14.796 6.25,0 10.16,-4.414 10.16,-9.355 0,-3.109 -0.44,-5.652 -1.56,-8.77 l -56.32,-157.359 c -2.57,-7.492 -5.44,-12.441 -13.23,-12.441 -7.79,0 -10.62,4.949 -13.23,12.441 l -56.37,157.359 c -1,2.84 -1.52,5.84 -1.55,8.848 0,4.695 3.89,9.356 10.14,9.356 9.1,0 10.94,-6.543 13.86,-14.793 l 46.73,-134.75 h 0.54 z M 1807.71,188.59 c 7.23,0 13.11,-5.86 13.11,-13.281 0,-7.411 -5.94,-13.239 -13.23,-13.239 -7.3,0.039 -13.2,5.95 -13.23,13.239 0,7.332 6.08,13.062 13.11,13.281 z m -91.63,102.551 c 0,7.558 4.39,12.238 11.39,12.238 7,0 11.46,-4.41 11.69,-12.238 v -11.692 h 0.54 c 5.16,10.68 17.9,23.922 31.12,23.922 8.07,0 12.45,-5.141 12.45,-11.66 0,-6.602 -4.67,-10.699 -14.29,-12.492 -13.52,-2.348 -30.14,-12.5 -30.14,-39.231 v -65.707 c 0,-7.562 -4.39,-12.25 -11.41,-12.25 -7.03,0 -11.45,4.688 -11.45,12.25 v 116.867 h 0.1 z M 1620.29,181.84 c 28.05,0 37.92,27.461 37.92,50.89 0,23.399 -9.87,50.852 -37.92,50.852 -28.02,0 -37.91,-27.453 -37.91,-51.062 0,-22.961 9.71,-50.711 38.22,-50.668 h -0.31 z m 59.48,-8.559 c 0,-8.133 -6.24,-11.23 -10.67,-11.23 -4.67,0 -10.62,3.097 -10.62,11.23 v 9.551 h -0.55 c -9.84,-13.992 -22.85,-20.801 -37.63,-20.801 -38.95,0 -60.76,34.008 -60.76,70.688 0,36.621 21.81,70.64 60.76,70.64 15.84,0 27.03,-6.578 37.98,-18.48 h 0.5 v 7.25 c 0,8.121 5.97,11.23 10.65,11.23 4.4,0 10.94,-3 10.94,-11.23 V 173.27 h -0.6 z M 1439.1,351.875 c 0,7.516 4.39,12.195 11.38,12.195 7.03,0 11.71,-4.375 11.71,-12.195 v -97.316 l 49.83,41.82 c 4.67,4.121 9.13,7.012 13.01,7.012 5.95,0 9.46,-4.411 9.46,-10.129 0,-3.461 -1.27,-6.571 -5.69,-9.903 l -51.95,-41.027 60.25,-59.184 c 4.39,-4.316 5.12,-7.25 5.12,-11.668 0,-5.148 -4.67,-9.058 -9.62,-9.058 -5.45,0 -7.78,1.558 -13.22,7.027 l -57.65,60.18 v -55.02 c 0,-7.488 -4.42,-12.187 -11.46,-12.187 -7.01,0 -11.4,4.699 -11.4,12.187 v 177.274 h 0.23 z m -65.39,-48.496 c 23.35,0 37.22,-8.117 37.22,-17.457 0,-4.692 -3.89,-9.563 -9.33,-9.563 -8.84,0 -12.25,7.223 -27.8,7.223 -28.3,0 -39.47,-27.453 -39.47,-50.852 0,-23.429 10.96,-51.171 39.41,-50.89 16.12,0 20.28,7.789 27.53,7.789 5.21,0 8.77,-3.688 8.77,-9.52 0,-8.57 -12.71,-17.898 -36.34,-17.898 -42.08,0 -62.32,34.008 -62.32,70.578 0.01,36.652 20.13,70.941 62.47,70.602 h -0.14 z M 1221.58,181.84 c 28.05,0 37.89,27.461 37.89,50.89 0,23.399 -9.84,50.852 -37.89,50.852 -28.04,0 -37.91,-27.453 -37.91,-51.062 0,-22.961 9.86,-50.711 37.6,-50.668 h 0.31 z m 59.46,-8.559 c 0,-8.133 -6.23,-11.23 -10.64,-11.23 -4.68,0 -10.65,3.097 -10.65,11.23 v 9.551 h -0.5 c -9.89,-13.992 -22.85,-20.801 -37.67,-20.801 -38.93,0 -60.75,34.008 -60.75,70.688 0,36.621 21.83,70.64 60.75,70.64 15.82,0 27.01,-6.578 37.96,-18.48 h 0.51 v 7.25 c 0,8.121 6,11.23 10.66,11.23 4.38,0 10.95,-3 10.95,-11.23 V 173.27 h -0.62 z m -260.12,117.86 c 0,7.558 4.39,12.238 11.39,12.238 7.03,0 11.7,-4.41 11.7,-12.238 v -5.45 l 0.52,-0.711 c 10.12,12.989 24.4,18.102 38.16,18.102 21.29,0 48.19,-13.094 48.19,-52.383 v -76.57 c 0,-7.547 -4.44,-12.219 -11.46,-12.488 -7.01,-0.161 -11.39,4.699 -11.39,12.218 v 75.289 c 0,24.223 -16.9,33.981 -31.97,33.981 -15.05,0 -31.91,-9.777 -31.91,-33.981 v -75.289 c 0,-7.519 -4.43,-12.218 -11.45,-12.218 -7,0 -11.4,4.699 -11.4,12.218 v 117.289 h -0.38 z m -77.869,12.238 c 18.953,0 45.988,-10.25 45.988,-24.481 0,-4.886 -3.391,-9.339 -10.394,-9.339 -9.856,0 -13.743,14.011 -35.594,14.011 -12.953,0 -24.11,-5.648 -24.11,-17.34 0,-24.109 73.719,-21.898 73.719,-61.589 0,-28.801 -24.652,-42.59 -50.39,-42.282 -29.063,0 -51.918,14.5 -51.918,26.223 0,6.238 4.429,10.348 9.339,10.348 10.149,0 18.278,-16.782 43.098,-16.782 16.621,0 26.754,9.332 26.754,18.672 0,27.02 -73.762,25.481 -73.762,63.93 0.258,25.031 23.989,38.961 47.348,38.621 h -0.078 z M 732.281,181.84 c 28.032,0 37.91,27.461 37.91,50.89 0,23.399 -9.871,50.852 -37.91,50.852 -28.051,0 -37.902,-27.453 -37.902,-51.062 0,-22.961 10.039,-50.711 37.777,-50.668 h 0.125 z m 59.438,-8.559 c 0,-8.133 -6.231,-11.23 -10.621,-11.23 -4.676,0 -10.66,3.097 -10.66,11.23 v 9.551 h -0.489 c -9.89,-13.992 -22.847,-20.801 -37.66,-20.801 -38.949,0 -60.762,34.008 -60.762,70.688 0,36.621 21.813,70.64 60.762,70.64 15.832,0 26.992,-6.578 37.941,-18.48 h 0.54 v 7.25 c 0,8.121 5.968,11.23 10.632,11.23 4.418,0 10.946,-3 10.946,-11.23 V 173.27 h -0.629 z m -210.25,8.559 c 28.023,0 37.91,27.461 37.91,50.89 0,23.399 -9.887,50.852 -37.91,50.852 -28.063,0 -37.899,-27.453 -37.899,-50.852 0,-23.171 9.77,-50.929 38.231,-50.89 z m 58.426,-8.328 c 0,-41.032 -24.946,-65.922 -62.317,-65.922 -23.629,0 -52.961,13.43 -52.961,25.14 0,4.692 2.332,10.649 9.602,10.649 10.39,0 20.429,-16.078 45.261,-16.117 29.079,0 37.637,22.918 37.637,42.578 v 12.012 h -0.496 c -7.012,-12.012 -19.473,-19.793 -35.074,-19.77 -38.926,0 -60.746,34 -60.746,70.637 0,36.66 21.832,70.679 60.746,70.679 14.824,0 29.223,-8.828 35.062,-17.457 h 0.5 v 6.219 c 0,8.129 5.993,11.238 12.223,11.238 4.379,0 10.945,-3 10.945,-11.238 V 173.5 h -0.382 z M 380.793,291.141 c 0,7.558 4.418,12.238 11.437,12.238 7.008,0 11.68,-4.41 11.68,-12.238 v -5.45 l 0.5,-0.711 c 10.141,12.989 24.406,18.102 38.18,18.102 21.293,0 48.172,-13.094 48.172,-52.383 v -76.57 c 0,-7.547 -4.414,-12.219 -11.41,-12.488 -7.012,0 -11.442,4.699 -11.442,12.218 v 75.289 c 0,24.223 -16.871,33.981 -31.93,33.981 -15.062,0 -31.953,-9.77 -31.953,-33.981 v -75.289 c 0,-7.519 -4.41,-12.218 -11.406,-12.218 -7.019,0 -11.437,4.699 -11.437,12.218 v 117.289 h -0.391 z m -93.434,36.578 c 6.481,0 11.934,5.441 11.934,12.031 0,6.438 -5.453,11.879 -11.934,11.879 -6.492,0 -11.949,-5.441 -11.949,-11.879 0,-6.859 5.621,-11.98 12.18,-12.031 z m 0,36.34 c 13.5,0 24.071,-10.957 24.071,-24.34 0,-13.59 -10.887,-24.481 -24.391,-24.18 -13.5,0.391 -24.406,10.941 -24.406,24.492 0.226,13.492 11.355,24.254 24.855,24.02 0.039,0 0.075,0 0.11,0 h -0.239 z M 285.027,181.84 c 28.043,0 37.911,27.461 37.911,50.89 0,23.399 -9.856,50.852 -37.911,50.852 -28.047,0 -37.91,-27.453 -37.91,-51.062 0,-22.961 9.821,-50.711 37.551,-50.668 h 0.359 z m 59.453,-8.559 c 0,-8.133 -6.226,-11.23 -10.632,-11.23 -4.688,0 -10.649,3.097 -10.649,11.23 v 9.551 h -0.508 c -9.882,-13.992 -22.851,-20.801 -37.664,-20.801 -38.937,0 -60.757,34.008 -60.757,70.688 0,36.621 21.82,70.64 60.757,70.64 15.832,0 27.004,-6.578 37.953,-18.48 h 0.532 v 7.25 c 0,8.121 5.968,11.23 10.636,11.23 4.403,0 10.95,-3 10.95,-11.23 V 173.27 h -0.618 z m -321.6362,-1.34 c -1.0508,-7.98 -6.2422,-9.89 -12.2032,-9.89 C 3.60938,162.051 0,166.73 0,173.738 c 0,2.672 0.507813,5.992 1.28906,10.453 L 26.4805,332.719 c 2.3281,12.906 9.6093,17.367 17.9297,17.367 9.0898,0 13.8711,-3.684 16.7929,-11.914 L 100.668,202.879 h 0.516 l 39.464,135.293 c 2.606,8.586 7.52,11.914 16.614,11.914 8.301,0 15.316,-4.414 18.234,-17.367 l 25.192,-148.528 c 0.781,-4.41 1.468,-8.109 1.468,-10.242 0,-6.988 -3.636,-11.668 -10.648,-11.668 -5.957,0 -11.149,1.77 -12.195,9.891 L 157.738,320.621 H 157.23 L 112.402,171.57 c -2.343,-7.558 -6.484,-9.332 -11.683,-9.332 -5.176,0 -9.3362,1.774 -11.6721,9.332 L 44.9102,320.621 H 44.3906 Z M 2094.75,350.074 c 7.69,-0.086 13.9,-6.316 13.95,-14.015 0,-7.469 -6.24,-14.008 -14.02,-14.008 -7.75,0 -14,6.23 -14,14.008 0,7.777 6.31,14.339 14.45,14.015 h -0.38" /></g></g></svg>