<?xml version="1.0" encoding="UTF-8" standalone="no"?>
<svg
   xmlns:dc="http://purl.org/dc/elements/1.1/"
   xmlns:cc="http://creativecommons.org/ns#"
   xmlns:rdf="http://www.w3.org/1999/02/22-rdf-syntax-ns#"
   xmlns:svg="http://www.w3.org/2000/svg"
   xmlns="http://www.w3.org/2000/svg"
   viewBox="0 0 126.82667 128.49333"
   height="128.49333"
   width="126.82667"
   xml:space="preserve"
   id="svg2"
   version="1.1"><metadata
     id="metadata8"><rdf:RDF><cc:Work
         rdf:about=""><dc:format>image/svg+xml</dc:format><dc:type
           rdf:resource="http://purl.org/dc/dcmitype/StillImage" /></cc:Work></rdf:RDF></metadata><defs
     id="defs6" /><g
     transform="matrix(1.3333333,0,0,-1.3333333,0,128.49333)"
     id="g10"><g
       transform="scale(0.1)"
       id="g12"><path
         id="path14"
         style="fill:#00adef;fill-opacity:1;fill-rule:nonzero;stroke:none"
         d="M 866.16,963.699 H 85.0313 c -46.961,0 -85.02739375,-35.656 -85.02739375,-79.636 V 207.184 c 0,-43.985 38.06639375,-79.637 85.02739375,-79.637 H 146.57 L 68.3828,-0.00390625 115.66,25.3281 306.441,127.547 H 866.16 c 46.961,0 85.039,35.652 85.039,79.637 v 676.879 c 0,43.98 -38.078,79.636 -85.039,79.636" /><path
         id="path16"
         style="fill:#ffffff;fill-opacity:1;fill-rule:nonzero;stroke:none"
         d="m 185.563,706.848 c 17.968,0 28.804,6.336 28.804,20.082 v 0.527 c 0,12.422 -9.25,20.086 -30.125,20.086 h -47.031 v -40.695 z m -10.833,74.515 c 17.969,0 29.336,5.817 29.336,19.559 v 0.523 c 0,12.16 -9.519,19.028 -26.695,19.028 h -40.16 v -39.11 z m -77.1597,54.434 c 0,11.363 8.9847,20.348 20.3477,20.348 h 65.531 c 21.145,0 37.793,-5.809 48.36,-16.383 8.457,-8.457 12.683,-18.758 12.683,-31.446 v -0.531 c 0,-20.875 -11.101,-32.5 -24.308,-39.898 21.402,-8.192 34.613,-20.61 34.613,-45.453 v -0.528 c 0,-33.824 -27.481,-50.73 -69.234,-50.73 h -67.645 c -11.363,0 -20.3477,8.976 -20.3477,20.344 v 144.277" /><path
         id="path18"
         style="fill:#ffffff;fill-opacity:1;fill-rule:nonzero;stroke:none"
         d="m 361.949,765.473 c 19.817,0 31.18,10.562 31.18,26.16 v 0.523 c 0,17.442 -12.149,26.426 -31.973,26.426 H 320.73 v -53.109 z m -81.918,69.492 c 0,11.363 8.985,20.344 20.348,20.344 h 64.215 c 23.515,0 41.75,-6.602 53.91,-18.758 10.297,-10.305 15.848,-24.84 15.848,-42.281 v -0.528 c 0,-29.066 -14.532,-47.035 -36.997,-56.285 l 28.278,-34.352 c 3.965,-5.023 6.601,-9.25 6.601,-15.589 0,-11.364 -9.507,-18.762 -19.285,-18.762 -9.25,0 -15.324,4.496 -20.082,10.57 l -39.637,50.203 h -32.5 v -40.425 c 0,-11.368 -8.988,-20.348 -20.351,-20.348 -11.363,0 -20.348,8.98 -20.348,20.348 v 145.863" /><path
         id="path20"
         style="fill:#ffffff;fill-opacity:1;fill-rule:nonzero;stroke:none"
         d="m 464.695,691.52 v 144.277 c 0,11.363 8.989,20.348 20.352,20.348 h 102.519 c 10.047,0 18.231,-8.188 18.231,-18.235 0,-10.039 -8.184,-17.969 -18.231,-17.969 h -82.441 v -37.523 h 70.555 c 10.039,0 18.234,-8.188 18.234,-18.23 0,-10.04 -8.195,-17.969 -18.234,-17.969 h -70.555 v -38.844 h 83.758 c 10.051,0 18.242,-8.191 18.242,-18.234 0,-10.039 -8.191,-17.965 -18.242,-17.965 H 485.047 c -11.363,0 -20.352,8.976 -20.352,20.344" /><path
         id="path22"
         style="fill:#ffffff;fill-opacity:1;fill-rule:nonzero;stroke:none"
         d="m 713.688,707.266 c 33.3,0 55.753,22.461 55.753,55.226 v 0.531 c 0,32.766 -22.453,55.758 -55.753,55.758 H 682.242 V 707.266 Z m -72.137,127.89 c 0,11.367 8.984,20.348 20.351,20.348 h 51.786 c 58.136,0 98.3,-39.899 98.3,-91.953 v -0.528 c 0,-52.058 -40.164,-92.488 -98.3,-92.488 h -51.786 c -11.367,0 -20.351,8.985 -20.351,20.348 v 144.273" /><path
         id="path24"
         style="fill:#ffffff;fill-opacity:1;fill-rule:nonzero;stroke:none"
         d="m 185.563,491.199 c 17.968,0 28.804,6.34 28.804,20.082 v 0.528 c 0,12.421 -9.25,20.082 -30.125,20.082 h -47.031 v -40.692 z m -10.833,74.516 c 17.969,0 29.336,5.816 29.336,19.555 v 0.527 c 0,12.16 -9.519,19.023 -26.695,19.023 h -40.16 v -39.105 z m -77.1597,54.433 c 0,11.368 8.9847,20.348 20.3477,20.348 h 65.531 c 21.145,0 37.793,-5.812 48.36,-16.379 8.457,-8.457 12.683,-18.765 12.683,-31.449 v -0.527 c 0,-20.875 -11.101,-32.5 -24.308,-39.903 21.402,-8.191 34.613,-20.609 34.613,-45.449 v -0.527 c 0,-33.824 -27.481,-50.739 -69.234,-50.739 h -67.645 c -11.363,0 -20.3477,8.985 -20.3477,20.348 v 144.277" /><path
         id="path26"
         style="fill:#ffffff;fill-opacity:1;fill-rule:nonzero;stroke:none"
         d="m 376.594,532.945 -25.633,61.047 -25.633,-61.047 z m -114.418,-51.257 64.476,145.597 c 4.489,10.039 12.68,16.121 23.786,16.121 h 2.371 c 11.097,0 19.031,-6.082 23.519,-16.121 l 64.481,-145.597 c 1.316,-2.907 2.113,-5.551 2.113,-8.196 0,-10.828 -8.457,-19.554 -19.293,-19.554 -9.512,0 -15.859,5.55 -19.551,14.003 l -12.422,29.075 h -81.39 l -12.95,-30.395 c -3.433,-7.93 -10.3,-12.683 -18.757,-12.683 -10.575,0 -18.762,8.457 -18.762,19.023 0,2.91 1.055,5.82 2.379,8.727" /><path
         id="path28"
         style="fill:#ffffff;fill-opacity:1;fill-rule:nonzero;stroke:none"
         d="m 453.727,621.207 c 0,11.363 8.992,20.348 20.351,20.348 h 4.227 c 9.777,0 15.59,-4.754 21.136,-11.891 L 577.926,526.609 V 622 c 0,11.098 8.984,20.082 20.09,20.082 11.093,0 20.078,-8.984 20.078,-20.082 V 474.813 c 0,-11.36 -8.985,-20.348 -20.352,-20.348 h -1.32 c -9.774,0 -15.586,4.762 -21.141,11.894 L 493.895,573.117 V 474.02 c 0,-11.098 -8.985,-20.082 -20.082,-20.082 -11.094,0 -20.086,8.984 -20.086,20.082 v 147.187" /><path
         id="path30"
         style="fill:#ffffff;fill-opacity:1;fill-rule:nonzero;stroke:none"
         d="m 713.465,492.258 c 33.301,0 55.762,22.457 55.762,55.222 v 0.536 c 0,32.761 -22.461,55.75 -55.762,55.75 H 682.027 V 492.258 Z m -72.129,127.89 c 0,11.368 8.984,20.348 20.34,20.348 h 51.789 c 58.144,0 98.301,-39.902 98.301,-91.961 v -0.519 c 0,-52.063 -40.157,-92.493 -98.301,-92.493 h -51.789 c -11.356,0 -20.34,8.985 -20.34,20.348 v 144.277" /><path
         id="path32"
         style="fill:#ffffff;fill-opacity:1;fill-rule:nonzero;stroke:none"
         d="m 93.8711,259.43 c -4.4922,3.175 -7.6641,8.984 -7.6641,15.324 0,10.574 8.4571,18.758 19.031,18.758 5.278,0 8.977,-1.844 11.625,-3.699 14.004,-10.293 29.325,-16.641 47.297,-16.641 16.649,0 26.688,6.601 26.688,17.441 v 0.528 c 0,10.3 -6.34,15.593 -37.258,23.515 -37.254,9.512 -61.3009,19.824 -61.3009,56.551 v 0.527 c 0,33.555 26.9529,55.758 64.7339,55.758 22.465,0 42.016,-5.816 58.668,-16.383 4.493,-2.644 8.981,-8.191 8.981,-16.121 0,-10.566 -8.453,-18.761 -19.024,-18.761 -3.96,0 -7.136,1.054 -10.304,2.91 -13.477,7.922 -26.16,12.422 -38.848,12.422 -15.59,0 -23.777,-7.137 -23.777,-16.121 v -0.528 c 0,-12.16 7.922,-16.125 39.894,-24.316 37.528,-9.778 58.668,-23.254 58.668,-55.489 v -0.527 c 0,-36.738 -28.011,-57.344 -67.914,-57.344 -24.308,0 -48.883,7.403 -69.4959,22.196" /><path
         id="path34"
         style="fill:#ffffff;fill-opacity:1;fill-rule:nonzero;stroke:none"
         d="m 260.328,259.43 c -4.496,3.175 -7.664,8.984 -7.664,15.324 0,10.574 8.457,18.758 19.027,18.758 5.286,0 8.985,-1.844 11.625,-3.699 14.004,-10.293 29.332,-16.641 47.301,-16.641 16.645,0 26.692,6.601 26.692,17.441 v 0.528 c 0,10.3 -6.344,15.593 -37.258,23.515 -37.262,9.512 -61.309,19.824 -61.309,56.551 v 0.527 c 0,33.555 26.953,55.758 64.742,55.758 22.461,0 42.016,-5.816 58.661,-16.383 4.492,-2.644 8.992,-8.191 8.992,-16.121 0,-10.566 -8.457,-18.761 -19.032,-18.761 -3.968,0 -7.136,1.054 -10.304,2.91 -13.477,7.922 -26.164,12.422 -38.844,12.422 -15.598,0 -23.785,-7.137 -23.785,-16.121 v -0.528 c 0,-12.16 7.93,-16.125 39.902,-24.316 37.52,-9.778 58.664,-23.254 58.664,-55.489 v -0.527 c 0,-36.738 -28.015,-57.344 -67.914,-57.344 -24.308,0 -48.883,7.403 -69.496,22.196" /><path
         id="path36"
         style="fill:#ffffff;fill-opacity:1;fill-rule:nonzero;stroke:none"
         d="m 568.426,331.832 v 0.527 c 0,31.711 -23.262,58.137 -56.016,58.137 -32.773,0 -55.492,-25.898 -55.492,-57.609 v -0.528 c 0,-31.707 23.246,-58.125 56.008,-58.125 32.773,0 55.5,25.891 55.5,57.598 z m -154.055,0 v 0.527 c 0,52.59 41.481,95.664 98.555,95.664 57.09,0 98.039,-42.546 98.039,-95.136 v -0.528 c 0,-52.586 -41.485,-95.652 -98.555,-95.652 -57.086,0 -98.039,42.547 -98.039,95.125" /><path
         id="path38"
         style="fill:#ffffff;fill-opacity:1;fill-rule:nonzero;stroke:none"
         d="m 636.578,405.563 c 0,11.359 8.985,20.343 20.344,20.343 h 4.226 c 9.786,0 15.586,-4.758 21.145,-11.894 L 760.77,310.965 v 95.39 c 0,11.094 8.984,20.079 20.085,20.079 11.094,0 20.079,-8.985 20.079,-20.079 V 259.168 c 0,-11.367 -8.985,-20.344 -20.34,-20.344 h -1.321 c -9.785,0 -15.593,4.758 -21.14,11.887 l -81.399,106.758 v -99.094 c 0,-11.094 -8.984,-20.086 -20.078,-20.086 -11.093,0 -20.078,8.992 -20.078,20.086 v 147.188" /><path
         id="path40"
         style="fill:#ffffff;fill-opacity:1;fill-rule:nonzero;stroke:none"
         d="m 855.348,283.738 c 13.215,0 22.988,-9.777 22.988,-22.461 v -0.519 c 0,-12.695 -9.773,-22.469 -22.988,-22.469 -13.203,0 -22.989,9.774 -22.989,22.469 v 0.519 c 0,12.684 9.786,22.461 22.989,22.461 z m -23.516,128.426 c -0.789,7.668 3.438,13.477 10.566,13.477 h 25.899 c 7.141,0 11.359,-5.809 10.578,-13.477 l -11.367,-99.355 c -0.793,-7.137 -5.547,-11.629 -12.16,-11.629 -6.602,0 -11.368,4.492 -12.149,11.629 l -11.367,99.355" /></g></g></svg>