<?xml version="1.0" encoding="UTF-8" standalone="no"?>
<svg
   xmlns:dc="http://purl.org/dc/elements/1.1/"
   xmlns:cc="http://creativecommons.org/ns#"
   xmlns:rdf="http://www.w3.org/1999/02/22-rdf-syntax-ns#"
   xmlns:svg="http://www.w3.org/2000/svg"
   xmlns="http://www.w3.org/2000/svg"
   viewBox="0 0 327.84 131.85333"
   height="131.85333"
   width="327.84"
   xml:space="preserve"
   id="svg2"
   version="1.1"><metadata
     id="metadata8"><rdf:RDF><cc:Work
         rdf:about=""><dc:format>image/svg+xml</dc:format><dc:type
           rdf:resource="http://purl.org/dc/dcmitype/StillImage" /></cc:Work></rdf:RDF></metadata><defs
     id="defs6" /><g
     transform="matrix(1.3333333,0,0,-1.3333333,0,131.85333)"
     id="g10"><g
       transform="scale(0.1)"
       id="g12"><path
         id="path14"
         style="fill:#005b9f;fill-opacity:1;fill-rule:nonzero;stroke:none"
         d="m 577.363,901.063 c -14.297,-4.305 -26.195,-7.5 -41.593,-9.2 -9.602,6 -20.403,-1.804 -29.704,0 -16.796,-3 -19.898,10.696 -34,13.7 l -1.398,0.5 c -13.199,-8.102 -33,-1.805 -42.602,-15.899 -9.597,-13.801 -27,-11.402 -39.3,-19.504 -8.098,-8.699 -22.797,-12.898 -21,-27.597 -4.496,-6.602 -11.098,-10.801 -18.297,-11.7 -15.602,11.399 -30.602,26.098 -51.903,22.5 -18.296,-3.004 -34.8,2.399 -52.199,3.899 -15.301,5.398 5.699,16.199 -2.097,27 4.796,4.199 6,10.199 7.195,16.203 6.601,23.398 -20.699,11.394 -26.996,25.793 -3.301,2.105 -7.801,5.703 -12.903,3.301 -6,-1.797 -8.996,-7.196 -12.296,-12.297 -3.301,-0.899 -5.403,-0.899 -8.407,0 l -45.593,33.601 c -4.204,3.297 -11.106,3.899 -16.204,1.797 -7.5,-11.996 -24.3,-7.195 -30.9019,-19.199 -1.5,-15.297 -19.1993,-22.5 -17.3985,-39.902 3.9024,-19.801 30.8984,-7.797 35.4024,-27.895 3.902,-3.902 8.102,-6.305 13.5,-6.906 13.496,-2.395 3.301,-18.895 15,-23.996 0.602,-5.098 -0.602,-9.297 -1.504,-13.504 3.902,-5.996 4.805,-12.598 12.305,-16.195 6.898,-4.801 8.699,-12.899 16.199,-17.403 6.301,-6.601 2.398,-17.398 1.199,-24.898 -4.801,-6.899 -11.699,-12.899 -19.801,-16.199 -6.898,3.902 -15.898,3.597 -22.203,9 -8.996,4.796 -11.699,-8.704 -19.199,-5.7 -0.898,12.598 -11.0976,21.598 -19.1992,30.297 -30.5976,12.004 -54.8945,47.403 -90.29683,41.699 -0.902345,-1.796 -2.097658,-4.8 0,-6.296 C 10.168,812.16 15.2656,801.66 21.2656,794.16 c 1.5,-14.101 12.3008,-25.199 16.8008,-36.898 4.8008,-9 -4.7969,-19.5 3.9024,-26.403 4.496,-12.898 3,-26.097 5.6992,-39.3 18.9023,-24.297 30.2968,-50.996 48.3008,-75.899 1.7968,-5.699 -1.5,-13.5 2.996,-17.996 12.0042,-8.703 0.3047,-31.805 18.3012,-34.801 16.203,-16.5 4.504,-44.703 23.101,-59.398 14.699,-18.906 4.199,-49.199 24.297,-66.008 6.305,-3.894 9.606,5.402 16.801,3.008 7.805,-0.606 9.305,-9.305 12.301,-14.707 0.304,-3.301 -0.899,-8.094 2.699,-9.598 1.805,-13.801 10.801,-26.094 7.5,-40.801 -3.297,-8.996 -18.899,-13.195 -14.695,-24.894 8.398,-4.5 17.996,-6.602 27.597,-9.004 0.899,-2.695 -2.101,-5.098 -1.801,-8.398 1.504,-3.907 3.602,-8.399 7.801,-9.903 3.598,-1.199 8.399,-0.898 10.199,2.707 6.301,1.492 7.801,-7.804 11.102,-11.406 8.098,-9.902 20.695,-13.195 24.301,-25.801 -10.199,-6.301 -11.106,-19.199 -10.199,-30.293 -3.606,-8.41 -11.106,2.696 -15.602,-3.301 -7.805,-9.601 -17.402,-16.808 -27,-24.601 -6.301,-6.902 -12.301,3.301 -18.602,0 -1.5,-3.008 0.297,-6.004 0.602,-9.004 -10.504,-8.699 -16.801,-21.902 -14.102,-36.602 2.102,-6.296 9.903,-13.796 3.004,-20.097 0.594,-5.703 6.899,-3.301 9.895,-6.297 -3.598,-21.906 16.805,-32.707 17.402,-52.199 -4.203,1.496 -2.402,9.601 -9.004,6.3 -0.297,-12.003 8.407,-23.7027 1.203,-35.109 -6,-3.8945 -15,-1.4922 -22.5,-2.0976 -11.097,4.1992 -4.199,18.0078 -10.5,25.2036 -2.699,2.101 -6.898,0.898 -8.996,-1.5044 -8.406,-16.1992 -17.402,-31.4922 -24.902,-48.3008 -0.602,-4.4922 -1.5,-10.1953 2.996,-12.8984 13.805,2.0976 23.102,15.3008 37.5,18.3008 6.305,2.0976 12.902,-0.5977 15.902,-5.9961 11.7,-9.0039 13.504,9.5976 23.399,9.9023 l 46.805,-29.707 c 10.496,-0.8985 18.3,9.9023 29.695,6.9023 15.305,-9.0039 33.301,-12 49.504,-19.1992 6.601,-7.1953 16.801,-8.69922 25.801,-11.69922 9.898,5.09762 16.796,-6.902343 26.996,-6.2968737 13.5,-1.2031263 21,15.5937937 34.203,11.6991937 1.5,0.8985 3.597,2.3907 2.695,4.5 8.402,7.5 17.402,13.1953 27.004,17.1016 18.598,8.3984 44.398,-3.9063 60,10.4961 1.5,6.6015 8.098,12.0039 12.898,16.2031 l 21.301,2.3906 c 5.703,1.2032 9.598,7.5 15.903,5.1094 14.398,-3.0078 21.898,11.9922 36.597,7.1953 14.399,2.1016 27.301,-5.9961 42,-1.7969 6,2.1016 3.301,-7.207 9,-7.207 4.199,4.8047 9.598,6.6016 14.703,9.0039 31.496,15.8985 53.094,-16.1992 74.696,-32.9961 l 4.8,-2.4023 c 23.7,1.5039 54.301,-16.2031 73.204,4.5 10.796,15.293 11.996,34.7969 24.597,49.5039 14.403,1.4922 15.301,17.9958 22.5,26.3948 5.699,4.797 14.699,8.703 16.199,16.203 11.102,7.801 5.102,23.398 10.801,33.594 0.903,6.601 1.496,15 -3.898,19.207 -5.399,6.593 -1.199,17.101 -5.703,24.297 -9.297,5.097 -14.399,14.394 -20.098,22.804 -0.301,11.395 -10.199,19.199 -5.703,31.492 2.699,13.204 -6.598,21.008 -16.195,27.004 -17.403,4.793 -17.102,24.004 -22.5,37.196 0,31.203 2.699,64.504 12.898,93 10.195,16.804 14.699,41.101 36.598,47.402 17.699,5.098 1.8,28.203 15.601,36.898 5.399,9.004 17.996,0.602 23.102,10.801 -3.903,9.598 7.5,5.703 10.496,10.504 9.601,10.496 11.402,30 29.398,29.399 2.106,4.496 -3.894,4.199 -2.996,8.398 0.899,4.5 5.399,6.898 9,9.598 16.199,-3.598 21.301,13.8 29.699,22.5 -1.8,17.101 10.804,27.902 13.504,43.203 -0.6,15.301 4.2,32.398 0,47.101 -2.1,14.399 -1.8,27.899 -6.601,41.395 -6.301,5.105 -14.703,3.004 -20.699,-0.297 -8.102,-1.801 -14.102,4.801 -20.403,9 -7.199,4.5 -13.801,-3 -20.703,-4.496 -2.098,2.098 -2.996,4.797 -4.496,7.195 -5.102,6.301 4.801,7.5 3.301,13.5 -6,6.301 -3.903,15 -2.699,23.102 -1.801,3.902 -5.102,5.097 -8.403,7.797 -2.398,3.902 -4.5,7.804 -5.699,12.3 5.398,12.004 0.898,25.801 3.902,38.704 5.696,13.195 1.496,32.097 14.696,40.496 27.004,-6.297 23.101,25.199 32.101,38.703 0.301,5.101 1.801,10.199 -2.398,14.101 -5.403,4.2 -11.403,1.496 -18.004,2.098 -3.895,2.102 -5.098,7.203 -10.199,6.898 -19.801,-2.699 -36.899,10.801 -56.7,14.102 -11.097,3.898 -20.699,16.5 -34.199,9.898 -5.097,-7.5 -13.801,-6.597 -21.898,-4.8 -11.403,1.5 -23.102,4.504 -32.403,10.504 -0.597,4.8 -3.898,9 -1.796,14.097 l -3.301,3.301 c -9,0 -21.004,3.598 -28.199,-3.301 -2.102,-15.601 -6.305,-31.195 -19.204,-41.699 l -35.097,-8.398 c -12.903,-0.602 -19.199,-15.602 -30.602,-18.004 -18.902,1.203 -42.301,9.004 -58.199,-4.496 -12.5,-3.004 -24.5,-6.801 -36.402,-10.305 l -2.403,-0.695" /><path
         id="path16"
         style="fill:#ffffff;fill-opacity:1;fill-rule:nonzero;stroke:none"
         d="m 275.867,209.559 c 3.996,-10 3,-20.996 -3,-28.996 -9,-11.004 -25,-14.004 -37,-9.004 -10,5 -14,15 -16.004,25 -2.996,13 8.004,22.004 17.004,29.004 15,5 32.996,0 39,-16.004" /><path
         id="path18"
         style="fill:#ffffff;fill-opacity:1;fill-rule:nonzero;stroke:none"
         d="m 248.766,469.559 15.199,74.5 4.101,1.504 c 4.801,-7.5 7.801,-11.504 15.204,-18.004 16.296,-13.5 33.597,-16.496 43.894,-16.496 29.902,0 38.703,21.496 38.703,34.5 0,18.496 -12.5,27.5 -29.801,40.996 l -12.199,9.504 c -19.203,15 -46.199,37 -46.199,89.101 0,41 14.801,67.996 21,76.996 22.5,34.004 54.699,42.5 81.699,42.5 40.699,0 66.996,-18 80.699,-26.996 l 1.801,-3.504 -15.504,-75 -3.695,-1.496 c -4.398,6 -8.902,11.496 -13.699,16 -13.703,12.996 -31.5,17.996 -41.102,17.996 -18.097,0 -30,-13.5 -30,-30.496 0,-15 8.102,-25.504 31.801,-42.5 l 7.699,-5.504 c 17.403,-12.996 50.399,-37.996 50.399,-92.097 0,-71.5 -41.5,-124.407 -113.598,-124.407 -19.602,0 -39.199,3.508 -58.398,11.504 -12.602,5.5 -18.102,9.504 -27.004,16.504 l -1,4.895" /><path
         id="path20"
         style="fill:#ffffff;fill-opacity:1;fill-rule:nonzero;stroke:none"
         d="m 584.969,447.359 -2.606,-2.996 c -34.398,0 -43.996,0 -78.797,-1.504 l -1.796,2.5 c 6.296,31.004 12.597,61.602 18.093,92.102 3.305,19.5 6.707,39.098 9.606,58.102 l -26.301,96.097 c -11.102,41.602 -17.398,63.602 -27.703,100.602 l 1.898,3.5 82.5,3.801 2.203,-2.805 c 10.7,-60.496 13.301,-72.996 25.5,-124.598 l 27,57.098 c 20.7,44.101 21.102,45.105 30.297,65.601 l 2.606,2.903 c 30.695,-0.5 38.797,0 70.297,1.398 l 1.504,-3.797 c -9.204,-16 -23.704,-43.101 -32.903,-59.601 l -78,-143.699 -14,-83.598 -9.398,-61.106" /><path
         id="path22"
         style="fill:#ffffff;fill-opacity:1;fill-rule:nonzero;stroke:none"
         d="m 684.469,443.16 29.199,1.504 h 26.996 c 10,0 20,-0.508 30,-0.508 59.199,0 106.602,9.504 140.602,73.106 18.902,34.898 32.902,90.097 32.902,147.301 0,136.097 -81.699,134.101 -138.301,132.597 h -34 -30.297 l -3.004,-3 c -6.3,-54.398 -8.5,-70.398 -18.902,-134.101 L 705.566,574.461 682.965,446.16 Z m 111.699,205 12.199,72.203 h 5.199 c 25.903,0.496 50,-1.5 50,-57.699 0,-32.301 -9.601,-82.605 -25.898,-110 -17.805,-29.402 -39.602,-29.902 -58.102,-29.902 h -3.699 l 20.301,125.398" /><path
         id="path24"
         style="fill:#005b9f;fill-opacity:1;fill-rule:nonzero;stroke:none"
         d="m 1151.27,799.059 -96.2,-1.996 -3,-3.004 c -15.5,-41.5 -22.9,-60.496 -46.3,-120.899 L 962.066,562.863 c -15.199,-37.902 -31.097,-79 -45.898,-114 l 1.5,-6.004 c 30,1.297 38.5,1.805 71.402,1.297 l 2.598,3.508 28.502,83.399 h 69.2 l 0.4,-33.602 v -51.496 l 1.9,-3 77.7,1.992 1.9,3.008 c -10,178.297 -11.5,210.797 -17.8,348.199 z m -61.8,-70.496 V 602.262 h -44 z" /><path
         id="path26"
         style="fill:#005b9f;fill-opacity:1;fill-rule:nonzero;stroke:none"
         d="m 1421.17,447.359 -2.6,-2.5 -52.5,-2 -2.21,2 -19.2,53.5 -55.4,157.903 -19.6,-136.403 -10,-72.5 -2.19,-2.5 -62.81,-2 -1.79,3.008 18.8,106.492 16.6,101 c 12.2,70 14.39,86.5 21.8,140.899 l 2.59,3.004 c 28.81,0 35.91,0 64.71,1.301 l 2.6,-2.5 18.8,-54.7 19.2,-53.004 c 7.8,-22.5 20.3,-58.996 28.79,-81.496 l 16.3,104.5 12.9,83 1.81,2.996 c 24.8,0 31.8,0 59.89,1.305 l 1.91,-3.004 -24.41,-142.5 -9.2,-54.398 -24.79,-151.403" /><path
         id="path28"
         style="fill:#005b9f;fill-opacity:1;fill-rule:nonzero;stroke:none"
         d="m 1583.77,447.359 -2.6,-2.996 -77.31,-1.504 -1.79,3.008 12.59,67.492 18.91,104.403 18.1,103.898 -22.9,-0.496 -38.5,-1.504 -1.5,4.004 14.4,70.594 3,3.004 h 127.6 l 64.69,1.301 2.21,-3 -14.1,-70.602 -3,-3.5 -34.4,1.5 h -19.2 l -14.41,-81 -16.3,-96.5 -15.49,-98.102" /><path
         id="path30"
         style="fill:#005b9f;fill-opacity:1;fill-rule:nonzero;stroke:none"
         d="m 1837.16,447.566 -2.59,-3.507 h -102.41 l -68.3,-1.297 -1.49,2.996 18.1,99.605 14.8,81.899 c 12.9,78.101 15.5,95.199 25.9,166.301 l 2.6,3.5 h 97.5 l 65.8,1.296 2.19,-2.996 -14.39,-68.402 -2.61,-3.496 h -83.09 l -11.11,-63.606 81.31,2.004 1.5,-4 -14,-65.101 -2.61,-3 h -77.19 l -4.41,-24.399 -7.79,-43.804 h 40.29 l 56.2,2.5 2.21,-2.996 -16.41,-73.497" /><path
         id="path32"
         style="fill:#005b9f;fill-opacity:1;fill-rule:nonzero;stroke:none"
         d="m 2114.97,447.359 -2.6,-2.5 -52.5,-2 -2.21,2 -19.2,53.5 -55.4,157.903 -19.6,-136.403 -10,-72.5 -2.19,-2.5 -62.9,-2 -1.8,3.008 18.9,106.492 16.6,101 c 12.19,70 14.4,86.5 21.79,140.899 l 2.61,3.004 c 28.8,0 35.9,0 64.7,1.301 l 2.6,-2.5 18.89,-54.7 19.21,-53.004 c 7.79,-22.5 20.29,-58.996 28.8,-81.496 l 16.3,104.5 12.9,83 1.8,2.996 c 24.8,0 31.79,0 59.9,1.305 l 1.89,-3.004 -24.49,-142.5 -9.21,-54.398 -24.79,-151.403" /><path
         id="path34"
         style="fill:#005b9f;fill-opacity:1;fill-rule:nonzero;stroke:none"
         d="m 2400.16,447.359 -2.59,-2.5 -52.5,-2 -2.2,2 -19.2,53.5 -55.4,157.903 -19.6,-136.403 -10,-72.5 -2.2,-2.5 -62.8,-2 -1.91,3.008 18.91,106.492 16.59,101 c 12.21,70 14.41,86.5 21.81,140.899 l 2.6,3.004 c 28.8,0 35.9,0 64.69,1.301 l 2.61,-2.5 18.9,-54.7 19.2,-53.004 c 7.8,-22.5 20.3,-58.996 28.8,-81.496 l 16.29,104.5 12.91,83 1.9,2.996 c 24.79,0 31.8,0 59.9,1.305 l 1.9,-3.004 -24.6,-142.5 -9.2,-54.398 -24.81,-151.403" /><path
         id="path36"
         style="fill:#005b9f;fill-opacity:1;fill-rule:nonzero;stroke:none"
         d="m 940.77,79.8594 c 0.898,5.5 1.296,11.1054 1.296,16.9062 0,3.8944 0,22.1954 -11.699,30.4964 -2.699,2.101 -8.797,4.601 -16.801,4.601 -7.796,0 -18.902,-1.906 -27.3,-15.207 -6.403,-10.39 -9.801,-25.9958 -9.801,-38.8943 0,-23.8984 10.699,-35.5976 28.301,-35.5976 5.402,0 21.3,0.5 30.5,19.6992 2.097,4.1992 4.203,10.8984 5.504,17.9961 z m -23.704,6.9062 c -1.898,-13.3008 -5.199,-24.6015 -11.296,-24.6015 -5.504,0 -5.504,8.3984 -5.504,11.0937 0,6.6016 2.097,22.707 5.101,30.4022 0.602,1.504 2.903,8.203 7.5,8.203 3.703,0 5.602,-4.004 5.602,-10.304 0,-0.801 -0.199,-7.0981 -1.403,-14.7934" /><path
         id="path38"
         style="fill:#005b9f;fill-opacity:1;fill-rule:nonzero;stroke:none"
         d="m 965.664,45.3594 -0.801,-0.9961 -21.699,-0.5977 -0.695,0.9961 3.898,25.4024 0.797,1.1015 22.203,0.293 0.602,-0.9961 -4.305,-25.2031" /><path
         id="path40"
         style="fill:#005b9f;fill-opacity:1;fill-rule:nonzero;stroke:none"
         d="m 1056.37,50.9648 -2.6,-3 -77.305,-1.5039 -1.899,3 12.598,67.5001 18.806,104.402 18.1,103.899 -22.9,-0.5 -38.404,-1.504 -1.5,4.004 14.398,70.597 3.004,3.008 h 127.602 l 64.7,1.297 2.2,-3.008 -14.1,-70.593 -2.9,-3.497 -34.4,1.493 h -19.2 l -14.4,-80.996 -16.3,-96.504 -15.5,-98.0942" /><path
         id="path42"
         style="fill:#005b9f;fill-opacity:1;fill-rule:nonzero;stroke:none"
         d="m 1309.87,51.1602 -2.61,-3.4961 h -102.29 l -68.4,-1.3008 -1.5,3 18.1,99.5977 14.8,81.906 c 12.9,78.094 15.5,95.196 25.9,166.297 l 2.6,3.496 h 97.5 l 65.79,1.301 2.21,-3 -14.4,-68.398 -2.6,-3.504 h -83.1 l -11.1,-63.594 81.3,2 1.5,-4.004 -14,-65.098 -2.6,-2.996 h -77.21 l -4.39,-24.406 -7.8,-43.797 h 40.3 l 56.2,2.5 2.2,-3 -16.4,-73.5038" /><path
         id="path44"
         style="fill:#005b9f;fill-opacity:1;fill-rule:nonzero;stroke:none"
         d="m 1530.77,50.7578 -2.6,-2.9961 h -92.1 l -75.4,-1.3008 -1.5,3 17.7,101.2971 22.6,135.402 c 8.5,49.004 10.4,62.5 17.79,111.406 l 2.21,2.997 80.19,1.496 2.21,-3 -19.61,-102.899 -13.29,-74.394 -17,-95.899 h 8.5 c 42.9,0 50.7,0 83.9,2.5 l 2.2,-3.008 -15.8,-74.6012" /><path
         id="path46"
         style="fill:#005b9f;fill-opacity:1;fill-rule:nonzero;stroke:none"
         d="m 1733.86,51.1602 -2.59,-3.4961 h -102.3 l -68.41,-1.3008 -1.49,3 18.09,99.5977 14.81,81.906 c 12.9,78.094 15.5,95.196 25.9,166.297 l 2.6,3.496 h 97.5 l 65.8,1.301 2.19,-3 -14.39,-68.398 -2.6,-3.504 h -83.1 l -11.11,-63.594 81.31,2 1.5,-4.004 -14,-65.098 -2.61,-2.996 h -77.19 l -4.4,-24.406 -7.8,-43.797 h 40.3 l 56.19,2.5 2.21,-3 -16.41,-73.5038" /><path
         id="path48"
         style="fill:#005b9f;fill-opacity:1;fill-rule:nonzero;stroke:none"
         d="m 2088.77,402.664 -96.2,-2.004 -3,-2.996 c -15.5,-41.504 -22.9,-60.5 -46.3,-120.898 l -43.7,-110.305 c -15.2,-37.898 -31.11,-79.004 -45.9,-114.004 l 1.49,-5.9961 c 30,1.3008 38.51,1.6993 71.41,1.3008 l 2.6,3.5039 28.49,83.3984 h 69.21 l 0.39,-33.601 V 49.5586 l 1.81,-3 77.69,2.0039 1.81,2.9961 c -10,178.3984 -11.5,210.8004 -17.8,348.3004 z m -61.8,-70.5 V 205.867 h -44 z" /><path
         id="path50"
         style="fill:#005b9f;fill-opacity:1;fill-rule:nonzero;stroke:none"
         d="m 2256.36,337.859 9.2,0.508 c 13.3,0 20,-0.508 25.91,-4.504 11.5,-7.402 11.8,-20.3 11.8,-24.804 0,-16.895 -7.4,-32.196 -18.51,-40.196 -10.69,-7.402 -21.79,-7.402 -33.29,-6.902 l -8.5,0.496 z m -38.89,63.204 -28.1,-0.5 -2.21,-2.997 c -8.49,-69.003 -10.69,-82.902 -32.19,-208.007 l -11.11,-63.692 -14.1,-76.0076 1.81,-2.9961 34.79,0.9961 h 24.01 c 76.2,0 85.5,0 108,6.5039 31.29,9.5 45.4,27 54.2,41.5039 12.59,21.4918 18.1,53.5938 18.1,72.1958 0,30.597 -12.9,49.601 -19.9,56.601 -6.3,6.496 -13.7,9.492 -21.01,13 6.41,2.996 12.71,5.496 18.91,10 15.9,12 35.1,37.801 35.1,76.492 0,43.907 -21.11,70.508 -58.4,76.504 -15.5,2.004 -29.6,2.004 -70.3,1.504 z m 13.7,-207.102 h 14.39 c 14.41,0 21.11,-0.496 26.7,-4.5 1.81,-1.496 12.9,-8.496 12.9,-27.598 0,-11.504 -4.09,-32.597 -20.4,-42.707 -10,-6.492 -23.29,-6.492 -34.39,-6.492 l -12.9,0.496 13.7,80.801" /><path
         id="path52"
         style="fill:none;stroke:#ffffff;stroke-width:1;stroke-linecap:butt;stroke-linejoin:miter;stroke-miterlimit:4;stroke-dasharray:none;stroke-opacity:1"
         d="m 1032.57,745.859 -100.004,-255" /></g></g></svg>